<svg width="42" height="43" viewBox="0 0 42 43" fill="none" xmlns="http://www.w3.org/2000/svg">
<path d="M42 21.5801C42 9.66046 32.5992 0 21 0C9.40078 0 0 9.66046 0 21.5801C0 31.6957 6.78398 40.1929 15.9305 42.5279V28.1721H11.5992V21.5801H15.9305V18.7393C15.9305 11.397 19.1625 7.99137 26.1844 7.99137C27.5133 7.99137 29.8102 8.26112 30.7535 8.53088V14.4991C30.2613 14.4485 29.4 14.4148 28.3254 14.4148C24.8801 14.4148 23.5512 15.7551 23.5512 19.2366V21.5801H30.409L29.2277 28.1721H23.543V43C33.9445 41.7103 42 32.6146 42 21.5801Z" fill="white"/>
</svg>
