<svg width="45" height="33" viewBox="0 0 45 33" fill="none" xmlns="http://www.w3.org/2000/svg">
<path d="M44.0597 5.16338C43.5421 3.13096 42.0173 1.53029 40.0812 0.987078C36.5719 0 22.5 0 22.5 0C22.5 0 8.42818 0 4.91879 0.987078C2.9827 1.53038 1.45786 3.13096 0.940319 5.16338C0 8.84727 0 16.5333 0 16.5333C0 16.5333 0 24.2194 0.940319 27.9033C1.45786 29.9357 2.9827 31.4697 4.91879 32.0129C8.42818 33 22.5 33 22.5 33C22.5 33 36.5718 33 40.0812 32.0129C42.0173 31.4697 43.5421 29.9357 44.0597 27.9033C45 24.2194 45 16.5333 45 16.5333C45 16.5333 45 8.84727 44.0597 5.16338ZM17.8977 23.5117V9.55496L29.659 16.5335L17.8977 23.5117Z" fill="white"/>
</svg>
