<svg width="221" height="50" viewBox="0 0 221 50" fill="none" xmlns="http://www.w3.org/2000/svg">
<path d="M75.7734 39.3345V49.8501H77.1543V45.7549L77.0181 41.3557L80.4493 49.8501H81.5066L84.9444 41.3347L84.8147 45.7549V49.8501H86.1956V39.3345H84.4046L80.9812 47.9143L77.5578 39.3345H75.7734Z" fill="white"/>
<path d="M178 40.8899L179.072 40.8965L180.999 38.7778H179.388L177.999 40.8899H178ZM179.38 42.0374H178.042V49.8487H179.38V42.0374Z" fill="white"/>
<path d="M182.158 42.0371H180.8L183.619 49.8498H184.633L187.424 42.0371H186.064L184.137 48.0377L182.158 42.0371Z" fill="white"/>
<path d="M197.87 38.749H196.539V49.8489H197.87V38.749Z" fill="white"/>
<path d="M33.1752 12.1026H30.1004V9.01411C30.1004 4.04385 26.0743 0 21.1259 0H21.0224C16.074 0 12.048 4.04385 12.048 9.01411V12.1026H8.97311C4.34572 12.1026 0.525364 15.6398 0.0497851 20.164C0.0170318 20.4772 0 20.7943 0 21.1154V21.218C0 21.5036 0.0144115 21.7852 0.0406142 22.0642H1.94817L17.0344 22.0668L19.8381 17.7571L24.5768 26.3001L28.5662 19.8758L29.972 22.1194H40.1949C39.7534 25.6159 36.7742 28.3293 33.1752 28.3293H29.1531C28.6291 28.3293 28.2046 28.7557 28.2046 29.2807V33.3219C28.2046 37.2421 25.0288 40.4319 21.1259 40.4319H21.0224C17.1195 40.4319 13.9438 37.2421 13.9438 33.3219V29.3268C13.9438 28.6793 13.4551 28.3306 12.9952 28.3306H8.97311C6.51268 28.3306 4.34572 27.0634 3.0762 25.1448H0.898753C2.353 28.1543 5.42527 30.2348 8.97443 30.2348H12.0493V33.3232C12.0493 38.2935 16.0754 42.3374 21.0237 42.3374H21.1272C26.0756 42.3374 30.1017 38.2935 30.1017 33.3232V30.2348H33.1766C37.8223 30.2348 41.6544 26.6699 42.1051 22.1221C42.1353 21.826 42.1497 21.526 42.1497 21.222V21.1193C42.1497 20.8154 42.1339 20.5153 42.1051 20.2192H40.1963H31.0201L28.5609 16.2938L24.6698 22.559L19.9678 14.0831L16.0085 20.1679H1.96127C2.42637 16.6965 5.39252 14.0107 8.97443 14.0107H12.9965C13.4564 14.0107 13.9438 13.6606 13.9438 13.0132V9.01805C13.9438 5.09791 17.1195 1.9081 21.0224 1.9081H21.1259C25.0288 1.9081 28.2046 5.09659 28.2046 9.01805V13.058C28.2046 13.5843 28.6291 14.0107 29.1531 14.0107H33.1752C35.5767 14.0107 37.7018 15.2187 38.9818 17.0623H41.1841C39.7036 14.1252 36.6707 12.1065 33.1752 12.1065" fill="white"/>
<path d="M53.1523 17.8073C53.1523 16.086 53.6987 14.6898 54.7913 13.641C55.884 12.5936 57.2504 12.0698 58.913 12.0698C60.5756 12.0698 61.9434 12.5686 63.0111 13.566C64.0789 14.5635 64.6252 15.9097 64.6252 17.5822V17.7323C64.6252 18.256 64.2269 18.531 63.433 18.531C62.639 18.531 62.2408 18.2573 62.2408 17.7323V17.6323C62.2159 16.5098 61.9185 15.6373 61.3223 15.0136C60.7262 14.3898 59.9323 14.0911 58.913 14.0911C57.8937 14.0911 57.1247 14.4148 56.505 15.0886C55.884 15.7623 55.5866 16.6598 55.5866 17.8073V24.3422C55.5866 25.4897 55.9089 26.3871 56.5299 27.0609C57.1509 27.7346 57.9697 28.0584 58.9641 28.0584C59.9585 28.0584 60.8009 27.7596 61.397 27.1359C61.9931 26.5121 62.3154 25.6397 62.3403 24.5172V24.4172C62.3403 23.8934 62.7373 23.6184 63.5325 23.6184C64.3278 23.6184 64.7248 23.8921 64.7248 24.4172V24.5672C64.7248 26.2384 64.1784 27.5859 63.1107 28.5834C62.0429 29.5822 60.6778 30.0796 59.0139 30.0796C57.35 30.0796 55.9835 29.5559 54.8909 28.5084C53.7982 27.4609 53.2519 26.0634 53.2519 24.3422L53.1523 17.8073Z" fill="white"/>
<path d="M72.2471 28.0581C72.5943 28.2331 72.7685 28.4819 72.7685 28.8069C72.7685 29.1806 72.6689 29.4806 72.4449 29.7044C72.2209 29.9294 71.9732 30.0281 71.6758 30.0281C71.5016 30.0281 71.3287 30.0031 71.1793 29.9281C68.9691 28.9056 67.8516 27.0343 67.8516 24.3156V12.1933C67.8516 11.6696 68.2249 11.3945 68.9691 11.3945C69.7133 11.3945 70.0867 11.6682 70.0867 12.1933V24.1656C70.0867 26.0606 70.8072 27.3581 72.2471 28.0318V28.0568V28.0581Z" fill="white"/>
<path d="M75.0044 17.5822C75.0044 17.0585 75.3765 16.7848 76.1219 16.7848C76.8674 16.7848 77.2395 17.0585 77.2395 17.5822V29.2308C77.2395 29.7546 76.8661 30.0033 76.1219 30.0033C75.3778 30.0033 75.0044 29.7533 75.0044 29.2308V17.5822ZM77.6365 11.4724C77.7609 11.3474 77.8854 11.2974 78.0347 11.2974C78.2575 11.2974 78.4566 11.3974 78.6557 11.6224C78.8536 11.8474 78.9531 12.0461 78.9531 12.2211C78.9531 12.3962 78.9033 12.5462 78.7789 12.6699L76.2962 15.1636C76.1717 15.2873 76.0486 15.3386 75.8992 15.3386C75.6765 15.3386 75.4773 15.2386 75.2782 15.0135C75.0791 14.7885 74.9795 14.5898 74.9795 14.4148C74.9795 14.2398 75.0293 14.0911 75.1537 13.9661L77.6378 11.4724H77.6365Z" fill="white"/>
<path d="M84.9114 16.6595C86.177 16.6595 87.2709 17.0582 88.1644 17.832C89.058 18.6058 89.506 19.6783 89.506 21.0495V29.1806C89.506 29.7043 89.1339 29.9543 88.3885 29.9543C87.643 29.9543 87.2709 29.7043 87.2709 29.1806V21.1245C87.2709 20.3257 87.0469 19.7033 86.6015 19.2532C86.1547 18.8045 85.6071 18.5795 84.9376 18.5795C84.2681 18.5795 83.7218 18.8045 83.2737 19.2532C82.827 19.7019 82.6042 20.3257 82.6042 21.1482V29.2043C82.6042 29.728 82.2321 29.978 81.4867 29.978C80.7412 29.978 80.3691 29.728 80.3691 29.2043V21.0731C80.3691 19.7006 80.8159 18.6281 81.7094 17.8557C82.6029 17.0832 83.6969 16.6832 84.9625 16.6832L84.9127 16.6582L84.9114 16.6595Z" fill="white"/>
<path d="M92.6844 17.5822C92.6844 17.0584 93.0565 16.7847 93.8019 16.7847C94.5474 16.7847 94.9195 17.0584 94.9195 17.5822V29.2308C94.9195 29.7545 94.5474 30.0032 93.8019 30.0032C93.0565 30.0032 92.6844 29.7532 92.6844 29.2308V17.5822ZM94.9431 13.5173C94.9431 14.3661 94.571 14.7898 93.8006 14.7898C93.0303 14.7898 92.6582 14.3661 92.6582 13.5173V13.0685C92.6582 12.2198 93.0303 11.7974 93.8006 11.7974C94.571 11.7974 94.9431 12.2211 94.9431 13.0685V13.5173Z" fill="white"/>
<path d="M97.7744 21.1997C97.7744 19.8022 98.2212 18.706 99.116 17.9323C100.01 17.1598 101.102 16.7598 102.369 16.7598C103.636 16.7598 104.754 17.1598 105.622 17.9573C106.492 18.7547 106.939 19.7285 106.939 20.901V21.0497C106.939 21.5497 106.567 21.7985 105.821 21.7985C105.076 21.7985 104.704 21.5497 104.704 21.0247V20.9247C104.704 20.3009 104.48 19.7772 104.058 19.3285C103.636 18.8797 103.065 18.6547 102.369 18.6547C101.673 18.6547 101.152 18.8784 100.705 19.3285C100.258 19.7772 100.036 20.4009 100.036 21.2234V25.6383C100.036 26.4358 100.26 27.0595 100.705 27.5083C101.152 27.957 101.724 28.182 102.394 28.182C103.063 28.182 103.661 27.957 104.083 27.5083C104.505 27.0595 104.729 26.5358 104.729 25.912V25.812C104.729 25.2883 105.101 25.0383 105.846 25.0383C106.592 25.0383 106.964 25.2883 106.964 25.7857V25.9357C106.964 27.1082 106.517 28.0807 105.648 28.8795C104.778 29.6782 103.686 30.077 102.395 30.077C101.105 30.077 100.061 29.6782 99.1671 28.9045C98.2736 28.1307 97.8268 27.0595 97.8268 25.687L97.777 21.1971L97.7744 21.1997Z" fill="white"/>
<path d="M114.063 28.2081C114.709 28.2081 115.255 28.008 115.677 27.6093C116.099 27.2106 116.323 26.6118 116.323 25.8381V23.5681C116.199 23.6931 115.951 23.8181 115.579 23.9168L113.071 24.5406C112.176 24.7893 111.73 25.3643 111.73 26.2618C111.73 26.7855 111.954 27.2343 112.376 27.608C112.799 27.9817 113.344 28.1817 114.015 28.1817L114.064 28.2067L114.063 28.2081ZM109.495 20.6507C109.495 19.5532 109.916 18.6307 110.76 17.857C111.605 17.0832 112.673 16.7095 113.965 16.7095C115.43 16.7095 116.547 17.1332 117.317 18.007C118.086 18.8794 118.485 20.0269 118.485 21.4494V25.6894C118.485 27.0606 118.063 28.133 117.218 28.9318C116.374 29.7306 115.306 30.1293 113.99 30.1293C112.673 30.1293 111.582 29.7556 110.737 28.9818C109.892 28.2094 109.47 27.2606 109.47 26.1381C109.47 24.3182 110.537 23.1707 112.673 22.6706L115.28 22.0469C115.951 21.8969 116.273 21.6732 116.273 21.3731V20.8994C116.273 20.2006 116.075 19.6519 115.652 19.2532C115.229 18.8531 114.684 18.6544 114.013 18.6544C113.342 18.6544 112.796 18.8531 112.374 19.2532C111.952 19.6519 111.753 20.1256 111.753 20.6994V20.8744C111.753 21.3481 111.381 21.5981 110.636 21.5981C109.89 21.5981 109.518 21.3244 109.518 20.7994L109.493 20.6494L109.495 20.6507Z" fill="white"/>
<path d="M133.657 21.1998C133.657 20.3774 133.432 19.7536 132.986 19.3036C132.539 18.8548 131.993 18.6311 131.322 18.6311C130.651 18.6311 130.105 18.8548 129.658 19.3036C129.211 19.7523 128.987 20.376 128.987 21.1998V25.6134C128.987 26.4372 129.21 27.061 129.633 27.5097C130.055 27.9584 130.626 28.1834 131.322 28.1834C132.018 28.1834 132.564 27.9584 133.011 27.5097C133.457 27.061 133.68 26.4372 133.68 25.6134L133.655 21.1998H133.657ZM135.867 25.7648C135.867 27.161 135.42 28.2334 134.526 29.0072C133.633 29.7797 132.565 30.1547 131.298 30.1547C130.031 30.1547 128.964 29.756 128.07 28.9822C127.177 28.2098 126.729 27.1123 126.729 25.7148V21.1511C126.729 19.7299 127.152 18.6324 127.995 17.8587C128.839 17.0849 129.834 16.6862 130.976 16.6862C132.118 16.6862 132.987 17.0349 133.658 17.7587V12.1962C133.658 11.6725 134.03 11.3975 134.775 11.3975C135.521 11.3975 135.893 11.6712 135.893 12.1962L135.868 25.7648H135.867Z" fill="white"/>
<path d="M143.266 28.2081C143.911 28.2081 144.458 28.008 144.88 27.6093C145.301 27.2106 145.526 26.6118 145.526 25.8381V23.5681C145.401 23.6931 145.153 23.8181 144.781 23.9168L142.274 24.5406C141.379 24.7893 140.932 25.3643 140.932 26.2618C140.932 26.7855 141.156 27.2343 141.578 27.608C142.001 27.9817 142.546 28.1817 143.217 28.1817L143.267 28.2067L143.266 28.2081ZM138.697 20.6507C138.697 19.5532 139.119 18.6307 139.963 17.857C140.808 17.0832 141.875 16.7095 143.166 16.7095C144.631 16.7095 145.748 17.1332 146.519 18.007C147.288 18.8794 147.686 20.0269 147.686 21.4494V25.6894C147.686 27.0606 147.264 28.133 146.419 28.9318C145.574 29.7306 144.508 30.1293 143.191 30.1293C141.874 30.1293 140.783 29.7556 139.938 28.9818C139.094 28.2094 138.671 27.2606 138.671 26.1381C138.671 24.3182 139.739 23.1707 141.874 22.6706L144.481 22.0469C145.152 21.8969 145.474 21.6732 145.474 21.3731V20.8994C145.474 20.2006 145.277 19.6519 144.853 19.2532C144.43 18.8531 143.885 18.6544 143.214 18.6544C142.544 18.6544 141.997 18.8531 141.575 19.2532C141.154 19.6519 140.954 20.1256 140.954 20.6994V20.8744C140.954 21.3481 140.582 21.5981 139.837 21.5981C139.091 21.5981 138.719 21.3244 138.719 20.7994L138.694 20.6494L138.697 20.6507Z" fill="white"/>
<path d="M156.203 17.8073C156.203 16.086 156.749 14.6898 157.842 13.641C158.935 12.5936 160.3 12.0698 161.964 12.0698C163.628 12.0698 164.994 12.5686 166.062 13.566C167.13 14.5635 167.676 15.9097 167.676 17.5822V17.7323C167.676 18.256 167.278 18.531 166.484 18.531C165.69 18.531 165.292 18.2573 165.292 17.7323V17.6323C165.267 16.5098 164.969 15.6373 164.373 15.0136C163.777 14.3898 162.982 14.0911 161.964 14.0911C160.946 14.0911 160.175 14.4148 159.556 15.0886C158.935 15.7623 158.637 16.6598 158.637 17.8073V24.3422C158.637 25.4897 158.96 26.3871 159.581 27.0609C160.202 27.7346 161.02 28.0584 162.015 28.0584C163.009 28.0584 163.853 27.7596 164.448 27.1359C165.044 26.5121 165.366 25.6397 165.392 24.5172V24.4172C165.392 23.8934 165.789 23.6184 166.585 23.6184C167.38 23.6184 167.777 23.8921 167.777 24.4172V24.5672C167.777 26.2384 167.231 27.5859 166.163 28.5834C165.095 29.5822 163.73 30.0796 162.066 30.0796C160.402 30.0796 159.037 29.5559 157.944 28.5084C156.852 27.4609 156.305 26.0634 156.305 24.3422L156.206 17.8073H156.203Z" fill="white"/>
<path d="M170.929 17.5822C170.929 17.0584 171.301 16.7847 172.046 16.7847C172.792 16.7847 173.164 17.0584 173.164 17.5822V29.2308C173.164 29.7545 172.792 30.0032 172.046 30.0032C171.301 30.0032 170.929 29.7532 170.929 29.2308V17.5822ZM173.187 13.5173C173.187 14.3661 172.815 14.7898 172.045 14.7898C171.274 14.7898 170.902 14.3661 170.902 13.5173V13.0685C170.902 12.2198 171.274 11.7974 172.045 11.7974C172.815 11.7974 173.187 12.2211 173.187 13.0685V13.5173Z" fill="white"/>
<path d="M182.946 21.1998C182.946 20.3774 182.722 19.7536 182.275 19.3036C181.829 18.8548 181.282 18.6311 180.612 18.6311C179.941 18.6311 179.396 18.8548 178.948 19.3036C178.501 19.7523 178.278 20.376 178.278 21.1998V25.6134C178.278 26.4372 178.501 27.061 178.923 27.5097C179.345 27.9584 179.916 28.1834 180.612 28.1834C181.307 28.1834 181.854 27.9584 182.3 27.5097C182.747 27.061 182.97 26.4372 182.97 25.6134L182.945 21.1998H182.946ZM185.156 25.7648C185.156 27.161 184.71 28.2334 183.816 29.0072C182.923 29.7797 181.855 30.1547 180.588 30.1547C179.321 30.1547 178.253 29.756 177.36 28.9822C176.465 28.2098 176.02 27.1123 176.02 25.7148V21.1511C176.02 19.7299 176.441 18.6324 177.285 17.8587C178.13 17.0849 179.123 16.6862 180.266 16.6862C181.408 16.6862 182.277 17.0349 182.948 17.7587V12.1962C182.948 11.6725 183.321 11.3975 184.065 11.3975C184.809 11.3975 185.183 11.6712 185.183 12.1962L185.158 25.7648H185.156Z" fill="white"/>
<path d="M192.556 28.2081C193.202 28.2081 193.748 28.008 194.17 27.6093C194.592 27.2106 194.816 26.6118 194.816 25.8381V23.5681C194.692 23.6931 194.444 23.8181 194.072 23.9168L191.564 24.5406C190.67 24.7893 190.223 25.3643 190.223 26.2618C190.223 26.7855 190.447 27.2343 190.869 27.608C191.292 27.9817 191.837 28.1817 192.508 28.1817L192.558 28.2067L192.556 28.2081ZM187.988 20.6507C187.988 19.5532 188.41 18.6307 189.253 17.857C190.098 17.0832 191.166 16.7095 192.458 16.7095C193.923 16.7095 195.04 17.1332 195.811 18.007C196.58 18.8794 196.978 20.0269 196.978 21.4494V25.6894C196.978 27.0606 196.556 28.133 195.711 28.9318C194.867 29.7306 193.8 30.1293 192.483 30.1293C191.166 30.1293 190.075 29.7556 189.23 28.9818C188.385 28.2094 187.963 27.2606 187.963 26.1381C187.963 24.3182 189.031 23.1707 191.166 22.6706L193.773 22.0469C194.444 21.8969 194.766 21.6732 194.766 21.3731V20.8994C194.766 20.2006 194.569 19.6519 194.145 19.2532C193.722 18.8531 193.177 18.6544 192.506 18.6544C191.836 18.6544 191.289 18.8531 190.867 19.2532C190.446 19.6519 190.246 20.1256 190.246 20.6994V20.8744C190.246 21.3481 189.874 21.5981 189.129 21.5981C188.383 21.5981 188.011 21.3244 188.011 20.7994L187.986 20.6494L187.988 20.6507Z" fill="white"/>
<path d="M206.436 21.1998C206.436 20.3774 206.212 19.7536 205.766 19.3036C205.319 18.8548 204.773 18.6311 204.102 18.6311C203.431 18.6311 202.886 18.8548 202.438 19.3036C201.991 19.7523 201.768 20.376 201.768 21.1998V25.6134C201.768 26.4372 201.991 27.061 202.413 27.5097C202.835 27.9584 203.406 28.1834 204.102 28.1834C204.797 28.1834 205.344 27.9584 205.791 27.5097C206.237 27.061 206.46 26.4372 206.46 25.6134L206.435 21.1998H206.436ZM208.647 25.7648C208.647 27.161 208.2 28.2334 207.306 29.0072C206.413 29.7797 205.345 30.1547 204.078 30.1547C202.811 30.1547 201.744 29.756 200.85 28.9822C199.957 28.2098 199.51 27.1123 199.51 25.7148V21.1511C199.51 19.7299 199.932 18.6324 200.775 17.8587C201.62 17.0849 202.613 16.6862 203.756 16.6862C204.898 16.6862 205.767 17.0349 206.438 17.7587V12.1962C206.438 11.6725 206.811 11.3975 207.555 11.3975C208.299 11.3975 208.673 11.6712 208.673 12.1962L208.648 25.7648H208.647Z" fill="white"/>
<path d="M215.874 18.6545C215.228 18.6545 214.682 18.8545 214.26 19.2533C213.838 19.6533 213.614 20.2257 213.614 20.9995V23.2682C213.738 23.1431 213.986 23.0194 214.359 22.9194L216.867 22.2957C217.762 22.047 218.209 21.4732 218.209 20.5745C218.209 20.0507 217.984 19.602 217.563 19.2269C217.141 18.8532 216.594 18.6532 215.924 18.6532H215.874V18.6545ZM220.442 26.1882C220.442 27.2857 220.02 28.2095 219.177 28.9819C218.332 29.7544 217.264 30.1294 215.972 30.1294C214.507 30.1294 213.39 29.7057 212.619 28.8319C211.85 27.9581 211.452 26.812 211.452 25.3894V21.1495C211.452 19.7783 211.874 18.6795 212.719 17.8821C213.563 17.0833 214.655 16.6846 215.971 16.6846C217.286 16.6846 218.38 17.0596 219.224 17.8321C220.068 18.6058 220.489 19.5533 220.489 20.6758C220.489 22.497 219.422 23.6445 217.286 24.1433L214.679 24.767C214.008 24.917 213.686 25.142 213.686 25.4408V25.9145C213.686 26.6132 213.909 27.162 214.332 27.5607C214.755 27.9594 215.3 28.1595 215.971 28.1595C216.642 28.1595 217.188 27.9594 217.61 27.5607C218.032 27.1607 218.256 26.6633 218.256 26.0895V25.9145C218.256 25.4408 218.628 25.1907 219.373 25.1907C220.119 25.1907 220.491 25.4644 220.491 25.9895L220.441 26.1882H220.442Z" fill="white"/>
<path d="M92.8165 43.5492C93.1427 43.9229 93.3248 44.4493 93.3628 45.1297V45.231H89.4638C89.5503 44.5217 89.7757 43.9716 90.1399 43.5782C90.5041 43.1847 90.9548 42.9886 91.4919 42.9886C92.0291 42.9886 92.4889 43.1755 92.8152 43.5492M94.593 48.4879L93.7807 47.851C93.5357 48.1708 93.2501 48.4274 92.9252 48.6208C92.599 48.8143 92.2007 48.9103 91.7304 48.9103C91.0688 48.9103 90.5237 48.6734 90.094 48.1984C89.6656 47.7233 89.4403 47.1009 89.4219 46.3298H94.6939V45.7731C94.6939 44.5243 94.4135 43.5637 93.8528 42.8939C93.2921 42.2228 92.5047 41.8872 91.4932 41.8872C90.8749 41.8872 90.301 42.0596 89.7704 42.4044C89.2411 42.7491 88.8284 43.2255 88.5336 43.8361C88.2389 44.4454 88.0908 45.1389 88.0908 45.9153V46.1613C88.0908 47.3273 88.421 48.2589 89.0839 48.9551C89.7455 49.6512 90.6037 49.9999 91.6583 49.9999C92.9632 49.9999 93.9406 49.4959 94.593 48.4892" fill="white"/>
<path d="M97.786 43.7768C98.1502 43.2689 98.6585 43.0162 99.311 43.0162C100.136 43.0162 100.747 43.386 101.145 44.1242V47.7259C100.757 48.4892 100.14 48.8708 99.2965 48.8708C98.6546 48.8708 98.1502 48.6195 97.786 48.1168C97.4217 47.6141 97.2396 46.9193 97.2396 46.0297C97.2396 45.0349 97.4217 44.2835 97.786 43.7755M95.9085 45.9797C95.9085 47.1746 96.1928 48.1431 96.7601 48.8853C97.3274 49.6275 98.0637 49.9986 98.9651 49.9986C99.9149 49.9986 100.655 49.6709 101.188 49.0156L101.253 49.8499H102.475V38.75H101.144V42.8281C100.612 42.2017 99.89 41.8885 98.9782 41.8885C98.0663 41.8885 97.3209 42.2543 96.7562 42.9833C96.1902 43.7137 95.9072 44.6783 95.9072 45.8784V45.9797H95.9085Z" fill="white"/>
<path d="M104.743 40.5031C104.875 40.6479 105.07 40.7203 105.33 40.7203C105.589 40.7203 105.786 40.6479 105.919 40.5031C106.054 40.3584 106.121 40.1768 106.121 39.9597C106.121 39.7425 106.054 39.5583 105.919 39.4096C105.786 39.2596 105.589 39.1846 105.33 39.1846C105.07 39.1846 104.875 39.2596 104.743 39.4096C104.61 39.5596 104.545 39.7425 104.545 39.9597C104.545 40.1768 104.61 40.3584 104.743 40.5031ZM105.982 42.0375H104.651V49.8489H105.982V42.0375Z" fill="white"/>
<path d="M109.649 48.1814C109.279 47.6945 109.095 46.9997 109.095 46.0983V45.8457C109.095 44.9193 109.281 44.2126 109.653 43.7231C110.025 43.2336 110.548 42.9888 111.225 42.9888C111.728 42.9888 112.151 43.152 112.495 43.4757C112.838 43.8007 113.028 44.2152 113.067 44.7205H114.326C114.288 43.8823 113.98 43.202 113.402 42.6769C112.825 42.1519 112.099 41.8887 111.226 41.8887C110.516 41.8887 109.902 42.0532 109.382 42.3808C108.862 42.7085 108.462 43.1691 108.184 43.7612C107.906 44.3547 107.768 45.0311 107.768 45.793V46.0167C107.768 47.2511 108.081 48.2222 108.706 48.9341C109.331 49.6447 110.174 50.0001 111.234 50.0001C111.762 50.0001 112.261 49.879 112.733 49.6395C113.206 49.3987 113.583 49.0763 113.866 48.671C114.149 48.267 114.303 47.8406 114.326 47.3919H113.067C113.028 47.8261 112.833 48.188 112.478 48.4788C112.122 48.7683 111.708 48.9131 111.233 48.9131C110.546 48.9131 110.02 48.6696 109.65 48.1828" fill="white"/>
<path d="M116.023 40.5031C116.155 40.6479 116.351 40.7203 116.61 40.7203C116.869 40.7203 117.066 40.6479 117.2 40.5031C117.333 40.3584 117.401 40.1768 117.401 39.9597C117.401 39.7425 117.334 39.5583 117.2 39.4096C117.065 39.2596 116.868 39.1846 116.61 39.1846C116.352 39.1846 116.155 39.2596 116.023 39.4096C115.891 39.5596 115.825 39.7425 115.825 39.9597C115.825 40.1768 115.891 40.3584 116.023 40.5031ZM117.264 42.0375H115.933V49.8489H117.264V42.0375Z" fill="white"/>
<path d="M119.392 42.0374V49.8487H120.723V44.2731C120.905 43.8968 121.159 43.5928 121.485 43.3612C121.811 43.1296 122.19 43.0151 122.622 43.0151C123.154 43.0151 123.546 43.1493 123.799 43.4204C124.05 43.6902 124.179 44.1073 124.184 44.6719V49.85H125.515V44.685C125.501 42.8217 124.671 41.8887 123.026 41.8887C122.067 41.8887 121.29 42.265 120.695 43.0164L120.652 42.0387H119.393L119.392 42.0374Z" fill="white"/>
<path d="M129.043 48.4775C128.766 48.242 128.627 47.9143 128.627 47.4958C128.627 46.5392 129.442 46.0602 131.073 46.0602H132.116V47.663C131.948 48.0091 131.677 48.2907 131.302 48.5078C130.929 48.7249 130.533 48.8328 130.115 48.8328C129.697 48.8328 129.322 48.7157 129.043 48.4788M133.718 49.85V49.7342C133.536 49.3105 133.445 48.7394 133.445 48.0222V44.4245C133.426 43.6349 133.162 43.0138 132.654 42.5637C132.146 42.1137 131.443 41.8887 130.547 41.8887C129.981 41.8887 129.463 41.9939 128.99 42.2058C128.517 42.4177 128.143 42.7059 127.868 43.0691C127.592 43.4323 127.454 43.8086 127.454 44.1994H128.792C128.792 43.8573 128.953 43.5652 129.274 43.3244C129.595 43.0835 129.993 42.9625 130.469 42.9625C131.011 42.9625 131.42 43.1006 131.699 43.3783C131.977 43.656 132.116 44.0284 132.116 44.4955V45.1101H130.821C129.704 45.1101 128.838 45.3351 128.221 45.7865C127.605 46.2378 127.297 46.8708 127.297 47.6867C127.297 48.3565 127.543 48.9105 128.034 49.3474C128.526 49.7842 129.156 50.0027 129.922 50.0027C130.781 50.0027 131.519 49.679 132.138 49.0342C132.186 49.4276 132.248 49.7 132.325 49.854H133.72L133.718 49.85Z" fill="white"/>
<path d="M140.717 48.4775C140.439 48.242 140.3 47.9143 140.3 47.4958C140.3 46.5392 141.115 46.0602 142.746 46.0602H143.789V47.663C143.621 48.0091 143.35 48.2907 142.975 48.5078C142.602 48.7249 142.206 48.8328 141.788 48.8328C141.371 48.8328 140.995 48.7157 140.717 48.4788M145.391 49.85V49.7342C145.209 49.3105 145.119 48.7394 145.119 48.0222V44.4245C145.099 43.6349 144.836 43.0138 144.328 42.5637C143.819 42.1137 143.117 41.8887 142.221 41.8887C141.655 41.8887 141.136 41.9939 140.663 42.2058C140.19 42.4177 139.817 42.7059 139.54 43.0691C139.264 43.4323 139.126 43.8086 139.126 44.1994H140.464C140.464 43.8573 140.624 43.5652 140.945 43.3244C141.266 43.0835 141.664 42.9625 142.14 42.9625C142.682 42.9625 143.091 43.1006 143.37 43.3783C143.648 43.656 143.786 44.0284 143.786 44.4955V45.1101H142.492C141.374 45.1101 140.508 45.3351 139.891 45.7865C139.276 46.2378 138.968 46.8708 138.968 47.6867C138.968 48.3565 139.214 48.9105 139.705 49.3474C140.197 49.7842 140.827 50.0027 141.593 50.0027C142.451 50.0027 143.19 49.679 143.809 49.0342C143.857 49.4276 143.919 49.7 143.996 49.854H145.391V49.85Z" fill="white"/>
<path d="M148.754 48.1814C148.385 47.6945 148.2 46.9997 148.2 46.0983V45.8457C148.2 44.9193 148.386 44.2126 148.758 43.7231C149.13 43.2336 149.653 42.9888 150.33 42.9888C150.834 42.9888 151.257 43.152 151.6 43.4757C151.943 43.8007 152.133 44.2152 152.173 44.7205H153.432C153.394 43.8823 153.086 43.202 152.508 42.6769C151.93 42.1519 151.204 41.8887 150.332 41.8887C149.622 41.8887 149.007 42.0532 148.487 42.3808C147.967 42.7085 147.567 43.1691 147.29 43.7612C147.012 44.3547 146.873 45.0311 146.873 45.793V46.0167C146.873 47.2511 147.186 48.2222 147.811 48.9341C148.436 49.6447 149.28 50.0001 150.34 50.0001C150.868 50.0001 151.367 49.879 151.838 49.6395C152.311 49.3987 152.689 49.0763 152.972 48.671C153.255 48.267 153.408 47.8406 153.432 47.3919H152.173C152.133 47.8261 151.938 48.188 151.583 48.4788C151.228 48.7683 150.814 48.9131 150.338 48.9131C149.653 48.9131 149.125 48.6696 148.756 48.1828" fill="white"/>
<path d="M159.313 43.5492C159.639 43.9229 159.821 44.4493 159.859 45.1297V45.231H155.96C156.046 44.5217 156.272 43.9716 156.636 43.5782C157 43.1847 157.451 42.9886 157.988 42.9886C158.525 42.9886 158.985 43.1755 159.311 43.5492M161.089 48.4879L160.277 47.851C160.032 48.1708 159.746 48.4274 159.421 48.6208C159.095 48.8143 158.697 48.9103 158.226 48.9103C157.565 48.9103 157.02 48.6734 156.59 48.1984C156.162 47.7233 155.936 47.1009 155.918 46.3298H161.19V45.7731C161.19 44.5243 160.91 43.5637 160.349 42.8939C159.788 42.2228 159.001 41.8872 157.989 41.8872C157.371 41.8872 156.797 42.0596 156.267 42.4044C155.736 42.7491 155.325 43.2255 155.03 43.8361C154.735 44.4454 154.587 45.1389 154.587 45.9153V46.1613C154.587 47.3273 154.917 48.2589 155.579 48.9551C156.24 49.6512 157.1 49.9999 158.154 49.9999C159.459 49.9999 160.437 49.4959 161.089 48.4892" fill="white"/>
<path d="M166.808 48.6052C166.502 48.8105 166.099 48.9131 165.596 48.9131C165.048 48.9131 164.609 48.7815 164.275 48.5183C163.941 48.2551 163.763 47.8985 163.739 47.4498H162.408C162.408 47.9117 162.543 48.342 162.814 48.7394C163.086 49.1368 163.46 49.446 163.94 49.6671C164.419 49.8882 164.971 49.9987 165.594 49.9987C166.481 49.9987 167.203 49.7882 167.759 49.3671C168.314 48.946 168.593 48.3854 168.593 47.688C168.593 47.2695 168.494 46.9142 168.295 46.6234C168.096 46.3312 167.79 46.0825 167.378 45.8759C166.965 45.6693 166.426 45.4904 165.762 45.3417C165.098 45.193 164.638 45.0351 164.385 44.8719C164.131 44.7074 164.004 44.4639 164.004 44.1402C164.004 43.7981 164.14 43.5204 164.414 43.3072C164.687 43.0954 165.066 42.9888 165.551 42.9888C166.036 42.9888 166.411 43.1217 166.72 43.3862C167.029 43.6507 167.184 43.9652 167.184 44.331H168.521C168.521 43.6178 168.246 43.0335 167.697 42.5756C167.148 42.1176 166.433 41.8887 165.55 41.8887C164.667 41.8887 164.021 42.1111 163.483 42.5545C162.943 42.998 162.673 43.5402 162.673 44.181C162.673 44.5666 162.767 44.8995 162.957 45.1785C163.147 45.4588 163.439 45.6996 163.835 45.9023C164.231 46.1049 164.765 46.2786 165.439 46.4234C166.112 46.5681 166.585 46.7405 166.856 46.9418C167.127 47.1419 167.262 47.4235 167.262 47.7853C167.262 48.1288 167.11 48.4025 166.805 48.6078" fill="white"/>
<path d="M174.409 48.6052C174.104 48.8105 173.7 48.9131 173.197 48.9131C172.651 48.9131 172.211 48.7815 171.877 48.5183C171.544 48.2551 171.364 47.8985 171.341 47.4498H170.01C170.01 47.9117 170.145 48.342 170.416 48.7394C170.687 49.1368 171.062 49.446 171.541 49.6671C172.021 49.8882 172.572 49.9987 173.196 49.9987C174.083 49.9987 174.805 49.7882 175.36 49.3671C175.916 48.946 176.195 48.3854 176.195 47.688C176.195 47.2695 176.095 46.9142 175.896 46.6234C175.697 46.3312 175.392 46.0825 174.979 45.8759C174.566 45.6693 174.028 45.4904 173.364 45.3417C172.699 45.193 172.24 45.0351 171.987 44.8719C171.733 44.7074 171.606 44.4639 171.606 44.1402C171.606 43.7981 171.742 43.5204 172.016 43.3072C172.288 43.0954 172.668 42.9888 173.153 42.9888C173.638 42.9888 174.012 43.1217 174.321 43.3862C174.631 43.6507 174.785 43.9652 174.785 44.331H176.123C176.123 43.6178 175.848 43.0335 175.299 42.5756C174.75 42.1176 174.034 41.8887 173.151 41.8887C172.268 41.8887 171.623 42.1111 171.084 42.5545C170.544 42.998 170.274 43.5402 170.274 44.181C170.274 44.5666 170.369 44.8995 170.559 45.1785C170.749 45.4588 171.041 45.6996 171.437 45.9023C171.832 46.1049 172.367 46.2786 173.04 46.4234C173.714 46.5681 174.186 46.7405 174.458 46.9418C174.729 47.1419 174.864 47.4235 174.864 47.7853C174.864 48.1288 174.712 48.4025 174.407 48.6078" fill="white"/>
<path d="M193.008 43.5492C193.334 43.9229 193.516 44.4493 193.554 45.1297V45.231H189.655C189.742 44.5217 189.967 43.9716 190.331 43.5782C190.695 43.1847 191.146 42.9886 191.683 42.9886C192.22 42.9886 192.68 43.1755 193.007 43.5492M194.784 48.4879L193.972 47.851C193.727 48.1708 193.442 48.4274 193.117 48.6208C192.79 48.8143 192.392 48.9103 191.922 48.9103C191.26 48.9103 190.715 48.6734 190.285 48.1984C189.857 47.7233 189.632 47.1009 189.613 46.3298H194.885V45.7731C194.885 44.5243 194.605 43.5637 194.044 42.8939C193.483 42.2228 192.696 41.8872 191.685 41.8872C191.066 41.8872 190.492 42.0596 189.962 42.4044C189.433 42.7491 189.02 43.2255 188.725 43.8361C188.43 44.4454 188.282 45.1389 188.282 45.9153V46.1613C188.282 47.3273 188.612 48.2589 189.275 48.9551C189.937 49.6512 190.795 49.9999 191.85 49.9999C193.155 49.9999 194.132 49.4959 194.784 48.4892" fill="white"/>
</svg>
