<svg width="168" height="168" viewBox="0 0 168 168" fill="none" xmlns="http://www.w3.org/2000/svg">
<path fill-rule="evenodd" clip-rule="evenodd" d="M83.75 159.125C125.378 159.125 159.125 125.379 159.125 83.75C159.125 42.1216 125.379 8.37482 83.75 8.37482C42.1216 8.37482 8.37482 42.1216 8.37482 83.75C8.37482 125.378 42.1216 159.125 83.75 159.125ZM83.75 167.5C130.003 167.5 167.5 130.003 167.5 83.75C167.5 37.4958 130.003 0 83.75 0C37.4958 0 0 37.4958 0 83.75C0 130.003 37.4958 167.5 83.75 167.5Z" fill="white"/>
<path fill-rule="evenodd" clip-rule="evenodd" d="M105.51 83.7488L66.9968 58.0738V109.425L105.51 83.7488ZM113.291 78.8712C116.772 81.192 116.772 86.3065 113.291 88.6274L67.7356 118.998C63.8399 121.596 58.6211 118.802 58.6211 114.12V53.3791C58.6211 48.6967 63.8399 45.9039 67.7356 48.5014L113.291 78.8712Z" fill="white"/>
</svg>
