<svg width="42" height="46" viewBox="0 0 42 46" fill="none" xmlns="http://www.w3.org/2000/svg">
<g clip-path="url(#clip0_2674_45108)">
<path d="M27.1031 3.2211V0.67164C27.1031 0.67164 27.2072 0.423498 27.2272 0.387478C27.4793 -0.0167533 28.0516 -0.112808 28.4479 0.14734C28.5399 0.207375 28.8041 0.53156 28.8041 0.611606V3.13305L28.8921 3.2211H34.3432C34.5634 3.2211 35.1397 3.50126 35.3518 3.62133C37.2849 4.72996 36.9807 7.0753 37.0168 8.9924C37.1008 13.7551 36.9487 18.5258 37.0168 23.2886C39.262 24.7894 40.8309 27.2228 41.5153 29.8243C43.7526 38.3412 36.4524 46.2097 27.8035 44.7088C23.7692 44.0084 20.2152 41.0907 18.7503 37.2766H3.26948C1.09624 37.1325 -0.000385644 35.5556 0.0716555 33.4504C0.283777 24.7574 -0.232518 15.9124 0.135692 7.2434C0.187722 6.00269 0.0596487 5.21023 0.984177 4.22167C1.29636 3.88548 2.23289 3.2251 2.68515 3.2251H8.34438V0.67164C8.34438 0.67164 8.44844 0.427501 8.46845 0.387478C8.71659 -0.0247579 9.29292 -0.116811 9.68915 0.14734C9.7812 0.207375 10.0454 0.53156 10.0454 0.611606V3.13305L10.1334 3.2211H27.1071H27.1031ZM8.34038 7.59159V4.95409L8.25233 4.86604H3.20945C2.74118 4.86604 2.15284 5.3183 1.98875 5.75855C1.92872 5.92264 1.82866 6.43894 1.82866 6.59503V11.1096L1.91671 11.1977H35.2478C35.2478 10.6814 35.2478 10.1651 35.2397 9.65277C35.2397 9.54871 35.1877 9.43265 35.1877 9.29657C35.1877 7.71967 35.9041 5.02213 33.6388 4.86604C32.126 4.76198 30.481 4.94208 28.9522 4.87804C28.9001 4.89005 28.8881 4.93007 28.8641 4.96609C28.664 5.28628 28.8761 7.05929 28.7921 7.59159C28.692 8.24397 27.8435 8.52813 27.3592 8.09588C27.2952 8.03985 27.0951 7.71567 27.0951 7.65563V4.95809L27.007 4.87004H10.2455C10.2255 4.87004 10.1494 4.93007 10.1094 4.93808C9.92529 5.78656 10.1414 6.75912 10.0414 7.5956C9.93329 8.50011 8.49647 8.53613 8.34038 7.5956V7.59159ZM35.2518 12.8946H1.92071L1.82866 13.0987C1.84467 17.1451 1.82065 21.1954 1.82866 25.2417C1.83266 28.0793 1.61254 31.4853 1.8927 34.2668C1.94473 34.7831 2.28892 35.3234 2.80522 35.4675C2.96131 35.5116 3.42157 35.5876 3.56565 35.5876H18.194C17.8578 33.8946 17.8098 32.2457 18.134 30.5447H7.72803C7.41585 30.5447 7.00362 30.1365 6.99561 29.8123C7.03563 25.4738 6.92357 21.1193 7.05164 16.7929C7.13969 16.5647 7.30379 16.4166 7.53192 16.3366H20.8795C21.0757 16.3646 21.4158 16.7368 21.4158 16.9129V24.3292C21.5039 24.3492 21.5519 24.3092 21.624 24.2731C22.1122 24.037 22.9647 23.2485 23.5291 22.8963C26.5748 21.0113 29.7966 20.567 33.2706 21.5316C33.951 21.7197 34.5874 21.9918 35.2518 22.22V12.8986V12.8946ZM19.7149 17.9375H8.63255V28.1113L8.74861 28.8437H18.7143C18.8024 28.5476 18.9144 28.2514 19.0385 27.9672C19.2946 27.3749 19.7109 26.7265 19.7109 26.1182V17.9375H19.7149ZM29.1443 22.7042C24.7858 23.0044 20.8475 26.3863 19.923 30.6608C17.6937 40.9707 30.453 47.5985 37.5131 39.81C43.7766 32.9021 38.3015 22.0799 29.1443 22.7042Z" fill="#005A64"/>
<path d="M30.4851 25.8744C30.5572 25.9424 30.6292 26.0825 30.6852 26.1706L30.7533 32.4942C30.7853 32.6062 30.9374 32.6823 31.0254 32.7463C32.3822 33.7349 33.9911 34.5113 35.3439 35.5199C35.9482 36.3204 35.1878 37.2849 34.2753 36.8247C32.8184 35.74 30.8813 34.8795 29.4885 33.7549C29.1604 33.4908 29.0723 33.3467 29.0363 32.9184C28.8602 30.8452 29.1684 28.5159 29.0443 26.4147C29.1163 25.7343 29.9928 25.4101 30.4851 25.8744Z" fill="#00A8BA"/>
<path d="M29.8969 22.793C32.6144 22.793 35.1679 23.8496 37.085 25.7707C39.0061 27.6918 40.0627 30.2452 40.0627 32.9588C40.0627 35.6723 39.0061 38.2298 37.085 40.1469C35.1639 42.068 32.6104 43.1246 29.8969 43.1246C27.1833 43.1246 24.6259 42.068 22.7088 40.1469C20.7877 38.2258 19.7311 35.6723 19.7311 32.9588C19.7311 30.2452 20.7877 27.6878 22.7088 25.7707C24.6299 23.8496 27.1833 22.793 29.8969 22.793ZM29.8969 20.8599C23.213 20.8599 17.7939 26.279 17.7939 32.9628C17.7939 39.6466 23.213 45.0657 29.8969 45.0657C36.5807 45.0657 41.9998 39.6466 41.9998 32.9628C41.9998 26.279 36.5807 20.8599 29.8969 20.8599Z" fill="#00A8BA"/>
</g>
<defs>
<clipPath id="clip0_2674_45108">
<rect width="42" height="45.0658" fill="white"/>
</clipPath>
</defs>
</svg>
