<svg width="42" height="38" viewBox="0 0 42 38" fill="none" xmlns="http://www.w3.org/2000/svg">
<path d="M29.6826 0.0373136C26.3341 0.2807 22.6788 2.35024 21.1343 5.34898C16.6274 -1.44064 6.50695 -1.97176 1.9073 5.05117C-1.46786 10.2046 -0.0932055 16.7458 3.91234 21.098L20.5387 37.7319C20.7911 37.9864 21.2381 37.9899 21.4966 37.7319L38.3522 20.8557C45.7813 13.0164 41.352 -0.811263 29.6826 0.0373136ZM38.002 18.9131L21.0769 36.131L4.49687 19.2643L4.15119 18.9131C4.15119 18.9131 3.7007 18.3321 3.08896 17.4472C2.94232 17.1862 2.80627 16.9227 2.68079 16.6576C2.68079 16.6576 2.68079 16.6566 2.67979 16.6556C2.24945 15.7466 1.94257 14.8179 1.7526 13.8897C1.75159 13.8851 1.75058 13.8821 1.75058 13.8821C0.430856 7.42104 4.7589 1.00884 12.3533 1.5707C15.5475 1.80703 18.3371 3.79544 19.9763 6.45001C20.2792 6.94082 20.3003 7.7128 21.0587 7.67299C21.7743 7.6357 21.9007 6.75034 22.2202 6.25702C23.9023 3.66291 26.5075 1.77881 29.6815 1.56969C38.6541 0.978105 43.1242 10.0121 38.9524 17.4422C38.9524 17.4422 38.5976 18.3074 38.0025 18.9136L38.002 18.9131Z" fill="#005A64"/>
<path d="M38.9527 17.4426C38.9527 17.4426 38.598 18.3078 38.0029 18.914H29.2747C28.9608 19.7837 27.9545 22.3919 27.0273 20.5124C26.8958 20.2458 26.2226 18.2372 26.213 18.018C26.1772 17.1957 27.0318 17.3206 27.628 17.435L27.9197 18.207C28.1505 18.2725 28.2634 17.6719 28.5214 17.5116C28.6625 17.4234 28.8121 17.3831 28.9779 17.3786L38.9532 17.4431L38.9527 17.4426Z" fill="#00A8BA"/>
<path d="M25.502 14.492C24.4877 17.8249 22.7709 21.7795 21.4607 25.0756C21.3055 25.4656 20.6237 27.3502 20.402 27.4444C19.8114 27.6964 19.2969 27.52 19.1075 26.8977L14.4136 12.6019L12.3118 18.168L11.7595 18.9133H4.15208C4.15208 18.9133 3.70158 18.3323 3.08984 17.4474L10.9765 17.3638L13.7338 9.80067C13.9888 9.24234 14.6333 9.21614 15.0586 9.59961L20.0735 24.4563L24.1793 13.5235C25.0883 12.3832 25.8976 13.194 25.5025 14.493L25.502 14.492Z" fill="#00A8BA"/>
</svg>
