<svg width="42" height="45" viewBox="0 0 42 45" fill="none" xmlns="http://www.w3.org/2000/svg">
<g clip-path="url(#clip0_2674_45126)">
<path d="M37.8518 26.2625C37.8478 23.7 38.1786 21.1256 36.0625 19.2645C32.6392 16.2517 27.2711 18.4874 26.9842 23.0265C26.7132 27.3146 27.2831 31.9414 26.9842 36.2215C26.6096 41.6573 20.4325 44.5586 15.993 41.4342C12.8686 39.2383 12.8686 36.0382 13.032 32.5392C13.0519 32.1566 13.1038 31.6027 13.1675 31.2201L11.5814 31.2639C11.5256 32.0809 11.5376 32.9497 11.5176 33.7666C11.4818 35.3169 11.3423 36.5284 11.7647 38.0667C13.2432 43.4586 19.6953 46.0092 24.4934 43.0641C27.0918 41.47 28.4149 38.8876 28.5663 35.8668C28.7735 31.6266 28.3989 27.2269 28.5703 22.9707C28.929 19.9579 32.2486 18.4316 34.7474 20.2847C36.6921 21.7274 36.2458 24.1344 36.2458 26.2665C32.7269 26.9719 31.0132 31.0288 33.1852 33.9898C35.1897 36.7197 39.4021 36.5324 41.1994 33.675C43.0844 30.6741 41.2432 26.8882 37.8518 26.2585V26.2625ZM39.4021 33.4279C36.5606 36.3052 31.8661 32.1965 34.6039 28.9525C37.4214 25.6129 42.5902 30.1999 39.4021 33.4279Z" fill="#005A64"/>
<path d="M37.0508 30.1842C37.6127 30.1842 37.9236 30.5708 38.0152 30.8976C38.079 31.1247 38.1148 31.5471 37.6127 31.862C37.4533 31.9616 37.2819 32.0134 37.1066 32.0134C36.7878 32.0134 36.465 31.8421 36.2856 31.575C36.1183 31.328 36.0944 31.049 36.2179 30.7461C36.3135 30.503 36.6682 30.228 36.8595 30.2001C36.9233 30.1922 36.991 30.1842 37.0508 30.1842ZM37.0508 29.1919C36.9432 29.1919 36.8316 29.1999 36.716 29.2158C36.1342 29.2995 35.5125 29.8375 35.2973 30.3755C34.7394 31.7663 35.8513 33.0057 37.1066 33.0057C37.4493 33.0057 37.804 32.9141 38.1388 32.7029C39.8404 31.6388 38.9517 29.1919 37.0508 29.1919Z" fill="#00A8BA"/>
<path d="M37.0904 27.9365C38.832 27.9365 40.2507 29.3552 40.2507 31.0968C40.2507 32.8383 38.832 34.257 37.0904 34.257C35.3489 34.257 33.9302 32.8383 33.9302 31.0968C33.9302 29.3552 35.3489 27.9365 37.0904 27.9365ZM37.0904 26.187C34.3765 26.187 32.1807 28.3868 32.1807 31.0968C32.1807 33.8067 34.3805 36.0065 37.0904 36.0065C39.8004 36.0065 42.0002 33.8067 42.0002 31.0968C42.0002 28.3868 39.8004 26.187 37.0904 26.187Z" fill="#00A8BA"/>
<path d="M17.7382 0C15.6977 0 14.3946 2.45488 15.7814 4.22829C16.2796 4.86593 17.0248 5.1688 17.7661 5.1688C18.7982 5.1688 19.8184 4.58298 20.1651 3.50697C22.094 3.64646 22.9747 5.36009 22.903 7.14945C22.8472 8.55622 22.6121 10.2778 22.4248 11.6926C22.349 12.2664 22.2574 12.8523 22.1299 13.4142C21.7552 13.4142 21.3288 13.5576 21.0857 13.8605C20.7829 14.2391 20.5796 15.7216 20.4282 16.2955C19.4478 19.9738 17.4751 23.9192 13.1791 24.1662C12.928 24.1822 12.6849 24.1862 12.4498 24.1862C7.90668 24.1862 5.91408 21.544 4.50731 17.3037C4.17654 16.2995 4.04901 15.2274 3.74613 14.271C3.54687 13.6373 3.11249 13.4301 2.46689 13.4221C2.31943 12.0672 2.08431 10.7202 1.94084 9.36522C1.8173 8.20552 1.51044 6.46399 1.94881 5.40393C2.33537 4.46741 3.35957 3.58269 4.38775 3.50299C4.81815 4.67065 5.73873 5.1688 6.67127 5.1688C8.18166 5.1688 9.72393 3.8497 9.2218 1.90891C8.90298 0.669513 7.82299 0.0438372 6.74699 0.0438372C5.67896 0.0438372 4.61092 0.657558 4.28015 1.89695C2.19988 2.16795 0.534065 3.73812 0.207279 5.82237C0.0279446 6.96214 0.298938 8.86707 0.426464 10.0666C0.561961 11.314 0.761221 12.5613 0.932585 13.8087C0.916644 13.9083 0.107649 14.1355 0.0199742 14.6855C-0.155374 15.8133 0.868821 18.8859 1.3311 20.0216C2.79367 23.6123 5.04132 26.5255 8.8432 27.7449C9.13811 27.8406 9.46489 27.8605 9.71198 27.9641C9.95507 28.0638 10.1224 28.2391 10.1185 28.6376C10.1065 29.2753 9.98695 29.61 10.3177 30.2437C10.5329 30.6581 10.9035 30.9411 11.2941 31.1762C11.6049 31.2997 11.9437 31.3715 12.2984 31.3715C12.9559 31.3715 13.5617 31.1364 14.0279 30.7418C14.3866 30.3592 14.6257 29.7814 14.6616 29.2713C14.6895 28.8249 14.4544 28.4145 14.8409 28.0478C14.8609 28.0438 14.8848 28.0399 14.9047 28.0319C19.9699 26.9399 22.8512 22.2812 24.1105 17.5827C24.2739 16.969 24.7322 15.2992 24.6365 14.7532C24.5529 14.259 24.1384 14.0239 23.712 13.8605C23.8594 12.8722 24.0109 11.8799 24.1224 10.8876C24.2898 9.38514 24.6525 7.03387 24.3895 5.60319C24.0308 3.65443 22.2175 2.00455 20.217 1.92087C20.0655 1.08796 19.2486 0.318816 18.4475 0.0996299C18.2004 0.0318816 17.9653 0 17.7342 0H17.7382ZM6.7709 3.51096C6.71511 3.51096 6.65134 3.50697 6.58758 3.499C6.1253 3.43126 5.87822 3.03274 5.86227 2.62625C5.84633 2.21976 6.06552 1.80529 6.53577 1.70566C6.62345 1.68574 6.70315 1.67777 6.77887 1.67777C7.35672 1.67777 7.65163 2.15998 7.63569 2.63023C7.6317 2.84942 7.55997 3.06462 7.42049 3.22801C7.41252 3.23997 7.40056 3.24794 7.39259 3.25989C7.38462 3.26786 7.37665 3.27982 7.36469 3.28779C7.35274 3.29974 7.34078 3.30771 7.32883 3.31967C7.18934 3.43923 7.00204 3.51494 6.76293 3.51494L6.7709 3.51096ZM17.7661 3.50299C16.6861 3.50299 16.5107 1.885 17.5708 1.70566C17.6425 1.69371 17.7143 1.68574 17.782 1.68574C18.8859 1.68574 19.0134 3.31967 17.9534 3.48705C17.8896 3.499 17.8258 3.50299 17.7661 3.50299ZM12.3581 29.897C12.0154 29.897 11.6727 29.6419 11.6886 29.0999C11.7125 28.2511 11.8321 27.9482 11.2503 27.2109C11.043 26.9479 10.8199 26.7606 10.5887 26.6211C9.95906 26.2425 9.24969 26.2067 8.46461 25.9078C4.97756 24.5847 2.82157 20.3046 1.95678 16.8853C1.88505 16.5944 1.62999 15.614 1.64594 15.3829C1.66188 15.1836 2.13213 15.1756 2.29154 15.064C3.07264 19.1847 5.03734 24.234 9.48482 25.4694C10.3137 25.7005 11.318 25.8201 12.3302 25.8201C13.4182 25.8201 14.5141 25.6806 15.3989 25.4017C19.663 24.0387 21.5839 19.1529 22.3411 15.1238C22.353 15.1039 22.3729 15.0959 22.4008 15.0959C22.5284 15.0959 22.8073 15.2474 22.9269 15.2474C22.9349 15.2474 22.9388 15.2474 22.9468 15.2474C22.7077 17.4233 21.8708 19.6351 20.8227 21.548C19.8145 23.3812 18.2124 25.1107 16.2357 25.8958C15.4307 26.2146 14.6815 26.2664 14.0598 26.6729C13.7769 26.8562 13.5178 27.1153 13.2947 27.5058C12.8842 28.2192 13.0157 28.4224 13.0316 29.1637C13.0396 29.6459 12.6969 29.9009 12.3542 29.9009L12.3581 29.897Z" fill="#00A8BA"/>
</g>
<defs>
<clipPath id="clip0_2674_45126">
<rect width="42" height="44.3114" fill="white"/>
</clipPath>
</defs>
</svg>
