<svg width="42" height="42" viewBox="0 0 42 42" fill="none" xmlns="http://www.w3.org/2000/svg">
<path d="M35.9956 24.5015C38.2739 25.3525 40.1128 26.9889 41.1356 29.1806C44.4404 36.2449 37.6794 43.6781 30.2316 41.6253C27.2739 40.8108 24.8258 38.3927 23.9802 35.4742C23.1235 35.7883 22.193 36.0111 21.2883 36.1536C8.80024 38.1479 -1.96346 27.2958 0.303748 14.9752C2.26078 4.36047 12.9654 -2.16691 23.5075 0.660282C33.2816 3.28292 38.8426 12.8822 36.5052 22.6386C36.3538 23.2632 36.1175 23.8805 35.9956 24.5051V24.5015ZM23.6552 33.7099C23.0681 28.03 28.3669 23.0586 34.0755 23.9718L34.1789 23.9207C36.7268 17.0719 34.4632 9.30988 28.4887 5.03987C19.1873 -1.60804 5.87945 2.53412 2.55988 13.4593C-0.892628 24.8192 8.63038 35.9198 20.4871 34.4551C21.5653 34.3199 22.6287 34.0533 23.6552 33.7099ZM32.137 25.6484C26.528 26.0867 23.4817 32.373 26.6166 37.0156C30.0507 42.1038 38.2444 40.8802 39.9208 34.9555C41.3276 29.9805 37.3065 25.243 32.137 25.6484Z" fill="#005A64"/>
<path d="M17.5989 18.8913C15.2874 18.6356 12.6325 17.4156 12.1598 14.9354C11.4989 11.4653 14.1612 8.61988 17.5989 8.45916C17.6802 7.8309 17.4069 6.84101 17.7909 6.32233C18.175 5.80365 18.8248 5.83287 19.2199 6.34425C19.6409 6.8958 19.2199 7.78706 19.4341 8.43359C21.2361 8.53587 23.0454 9.36138 24.0571 10.8699C24.419 11.4105 24.803 12.2762 24.8437 12.9264C24.9212 14.1062 23.3593 14.3144 23.0417 13.2625C22.9863 13.0798 22.9826 12.8789 22.9235 12.6817C22.4731 11.2206 20.8705 10.3147 19.3787 10.2746V17.3097L19.471 17.3791C21.1142 17.6128 22.7795 17.9562 23.8984 19.2602C25.2535 20.8455 25.2978 23.406 24.2196 25.141C23.1599 26.8505 21.3801 27.7052 19.3824 27.8221C19.3123 27.8879 19.4526 29.0312 19.4378 29.243C19.3898 29.9626 18.6735 30.5434 18.0014 30.0722C17.3294 29.601 17.6802 28.5198 17.5915 27.8258C15.7268 27.6687 14.0356 26.8395 12.9833 25.2945C12.5993 24.7319 12.1635 23.764 12.1303 23.0846C12.0934 22.354 12.8171 21.9157 13.4781 22.2371C14.0246 22.5038 13.9692 23.1248 14.1464 23.6106C14.6301 24.9511 16.181 25.9337 17.5952 26.0031V18.8876L17.5989 18.8913ZM17.5989 10.3293C15.9078 10.3768 14.1058 11.6078 13.9286 13.3574C13.6886 15.7061 15.5385 16.7362 17.5989 17.0686V10.3257V10.3293ZM19.3824 19.2127V25.8752C19.3824 25.9081 19.4267 25.9556 19.3824 26.0067C21.0921 25.9702 22.9531 24.637 23.1156 22.8764C23.3445 20.3633 21.6385 19.4501 19.3824 19.2127Z" fill="#005A64"/>
<path d="M30.3868 36.2594C29.3825 35.3645 28.4446 34.3783 27.4734 33.4432C26.8753 32.5957 27.7541 31.6497 28.6514 32.1172L31.4651 34.6741L36.3429 29.2206C37.1922 28.6472 38.1781 29.6188 37.6057 30.4699L32.1519 36.6868C31.3949 37.2895 30.9333 36.7489 30.3868 36.2594Z" fill="#00A8BA"/>
<path d="M32.8057 25.6272C34.7701 25.6272 36.6164 26.3833 38.0048 27.7567C39.3932 29.1301 40.1575 30.9564 40.1575 32.8997C40.1575 34.8429 39.3932 36.6693 38.0048 38.0427C36.6164 39.4161 34.7701 40.1722 32.8057 40.1722C30.8413 40.1722 28.995 39.4161 27.6066 38.0427C26.2182 36.6693 25.4539 34.8429 25.4539 32.8997C25.4539 30.9564 26.2182 29.1301 27.6066 27.7567C28.995 26.3833 30.8413 25.6272 32.8057 25.6272ZM32.8057 23.8081C27.7285 23.8081 23.6113 27.8809 23.6113 32.9033C23.6113 37.9258 27.7285 41.9986 32.8057 41.9986C37.8829 41.9986 42.0001 37.9258 42.0001 32.9033C42.0001 27.8809 37.8829 23.8081 32.8057 23.8081Z" fill="#00A8BA"/>
</svg>
